<svg viewBox="0 0 439 434" fill="none" xmlns="http://www.w3.org/2000/svg">
<path d="M409.132 111.058C389.524 77.005 362.927 50.0454 329.334 30.1728C295.736 10.2992 259.057 0.36499 219.271 0.36499C179.49 0.36499 142.799 10.3023 109.208 30.1728C75.612 50.0444 49.016 77.005 29.408 111.058C9.803 145.11 0 182.294 0 222.611C0 271.041 13.94 314.59 41.827 353.27C69.711 391.953 105.733 418.72 149.89 433.574C155.03 434.541 158.835 433.861 161.309 431.551C163.784 429.238 165.02 426.341 165.02 422.872C165.02 422.294 164.971 417.087 164.876 407.246C164.778 397.405 164.732 388.82 164.732 381.494L158.165 382.646C153.978 383.423 148.696 383.753 142.319 383.659C135.945 383.569 129.328 382.892 122.477 381.633C115.623 380.385 109.248 377.492 103.347 372.958C97.449 368.424 93.262 362.489 90.787 355.163L87.932 348.504C86.029 344.07 83.033 339.145 78.94 333.747C74.847 328.343 70.708 324.68 66.521 322.751L64.522 321.301C63.19 320.337 61.954 319.174 60.811 317.825C59.669 316.476 58.814 315.126 58.243 313.774C57.671 312.421 58.145 311.311 59.67 310.44C61.195 309.57 63.951 309.147 67.95 309.147L73.658 310.011C77.465 310.785 82.174 313.095 87.791 316.956C93.405 320.813 98.02 325.829 101.637 331.999C106.017 339.911 111.294 345.94 117.483 350.089C123.667 354.238 129.902 356.308 136.182 356.308C142.462 356.308 147.886 355.826 152.456 354.866C157.021 353.901 161.304 352.451 165.303 350.523C167.016 337.591 171.68 327.657 179.291 320.713C168.443 319.557 158.69 317.817 150.027 315.503C141.369 313.186 132.422 309.426 123.192 304.212C113.957 299.005 106.296 292.539 100.207 284.826C94.117 277.108 89.119 266.976 85.22 254.439C81.319 241.897 79.368 227.429 79.368 211.031C79.368 187.683 86.888 167.814 101.925 151.414C94.881 133.861 95.546 114.183 103.922 92.3823C109.442 90.6439 117.628 91.9484 128.476 96.2876C139.326 100.629 147.27 104.348 152.316 107.431C157.362 110.513 161.405 113.126 164.451 115.244C182.156 110.23 200.427 107.722 219.269 107.722C238.111 107.722 256.386 110.23 274.092 115.244L284.941 108.302C292.36 103.67 301.121 99.4247 311.203 95.566C321.291 91.7092 329.005 90.647 334.337 92.3853C342.899 114.187 343.662 133.864 336.616 151.417C351.652 167.817 359.175 187.691 359.175 211.034C359.175 227.432 357.217 241.945 353.322 254.584C349.422 267.225 344.381 277.346 338.197 284.971C332.006 292.594 324.296 299.009 315.066 304.215C305.834 309.425 296.884 313.185 288.226 315.502C279.564 317.819 269.811 319.561 258.963 320.718C268.857 329.396 273.805 343.095 273.805 361.808V422.864C273.805 426.333 274.995 429.229 277.377 431.543C279.756 433.853 283.513 434.533 288.653 433.565C332.816 418.712 368.838 391.944 396.721 353.262C424.601 314.582 438.546 271.033 438.546 222.603C438.536 182.291 428.728 145.11 409.132 111.058Z" fill="none"/>
</svg>
